<?xml version="1.0" encoding="utf-8"?>
<!-- Generator: Adobe Illustrator 28.0.0, SVG Export Plug-In . SVG Version: 6.00 Build 0)  -->
<svg version="1.1" id="Camada_1" xmlns="http://www.w3.org/2000/svg" xmlns:xlink="http://www.w3.org/1999/xlink" x="0px" y="0px"
	 viewBox="0 0 900 596" style="enable-background:new 0 0 900 596;" xml:space="preserve">
<style type="text/css">
	.st0{fill:#E8E6E6;}
	.st1{fill:#261400;}
	.st2{fill:#315B16;}
	.st3{fill:none;stroke:#261400;stroke-width:6;stroke-miterlimit:10;}
	.st4{enable-background:new    ;}
</style>
<rect class="st0" width="900" height="596"/>
<g>
	<g>
		<g>
			<polygon class="st1" points="374,120.9 377.3,120.9 381.7,193.9 401.6,171.1 382.5,204.2 382.5,228.9 399.7,187 393.5,210.9 
				423,187.6 384,234.5 383.6,254.7 398.5,231.4 410.1,207.3 401.6,232.5 425.7,215.9 425.7,219.2 383.6,265.4 384.4,279.3 
				401.6,260.2 417.2,232.2 419.2,233.7 416.1,239.5 430.8,228.1 445.2,221.5 414.3,249.1 406.2,260.9 415.3,257.6 438.1,236.6 
				438.1,239.9 423,257.3 445.2,252.8 463.8,239.9 463.8,244.7 453.3,252 477.9,252.8 475.9,254.9 422.3,266.1 422.3,268.6 
				457.6,274.2 471.7,275.2 470.5,279.3 455.3,279.3 420.7,273.1 406.6,273.5 384,299.9 388.5,349 392.7,356.7 408.9,363.3 
				432.3,368.1 447.2,371 452.2,369.2 468.6,368.9 487.9,374.1 503.9,371.7 496.6,375.8 442.3,406.7 376.3,418.9 313,407.7 
				248.7,369.8 263.9,373.3 288.8,370.4 305.1,366.5 316.8,369.2 324.6,368.1 344.5,364 356.4,356.7 366.3,297.8 356.4,282 
				349.9,275.2 339,272.7 325,270.2 286.9,274.6 262.4,276 252.5,274.6 253.3,271.5 285.8,270.2 313.4,267.5 330,265.4 345.6,264.6 
				334.4,258.8 313.8,254.7 301.2,250.5 330,250.5 324.2,240.7 326.5,238.9 344.5,255.7 337.9,237.4 329.6,220 333.8,220 
				348.7,250.5 353.7,261.7 366.3,276 369,259.8 356,240.7 338.3,221.9 328.4,215.9 319.5,209 321.1,203.8 358,235.4 354.9,223.1 
				347.5,215 349.9,210.5 358.7,220 367.4,243.4 370.9,230.8 365.1,223.1 356.4,208.2 348.7,199.3 342.5,191.2 356,200.1 
				353.3,189.1 351.8,183.9 355.3,187 360.3,204.2 369.7,218.6 370.9,202.8 352.6,174.4 352.2,170.8 370.5,190.6 			"/>
		</g>
	</g>
	<g>
		<polygon class="st2" points="308.3,290.9 334.6,274.2 308.3,274.2 285,293.2 		"/>
		<polygon class="st2" points="258.1,295.5 277.6,292.2 294.6,276.2 278.2,276.2 258.1,292.2 		"/>
		<polygon class="st2" points="233.6,293.7 245.4,282 269.7,277.7 255.3,290.7 		"/>
		<polygon class="st2" points="248.7,276.8 232.1,286.4 210.5,283.9 226.9,274.4 248.7,274.4 		"/>
		<polygon class="st2" points="243.5,268.6 221.5,257.4 200.6,257.4 219.9,270.6 		"/>
		<polygon class="st2" points="320.5,264 295.6,266.9 283.8,264 257.4,254.2 294.1,251.9 		"/>
		<polygon class="st2" points="281.9,248.2 253.3,224 291.4,246.4 305.8,248.2 279.6,222.5 243.5,216.3 260.9,236.4 233.6,233.9 
			252.2,248.2 		"/>
		<polygon class="st2" points="248.1,248.2 223.8,230.2 200.6,232.4 224.4,248.2 		"/>
		<path class="st2" d="M252.9,232.4l-16.6-17c0,0-31.1-4.4-30.9-3.9c0.2,0.4,19.9,17.6,19.9,17.6L252.9,232.4z"/>
		<polygon class="st2" points="324.8,249.9 314.9,240.8 287.7,230.4 303.7,244.5 310.9,249.7 		"/>
		<polygon class="st2" points="320.1,226.9 294.4,211.3 266.6,198.6 279.2,215.4 290.2,227.9 308.5,230.2 301.6,223.1 		"/>
		<polygon class="st2" points="277.5,218.4 262.6,198.6 205.4,197 227.1,209.4 248.1,212.7 252.9,210.3 276.9,219 		"/>
		<polygon class="st2" points="249.1,193.7 224.4,177.9 203.9,180.6 225.7,193.7 248.1,194.3 		"/>
		<path class="st2" d="M269.9,197c-1.2-2.3-18.3-24.7-18.9-24.9c-0.6-0.2-11.4-5.8-11.4-5.8l-26.5-2.5l11.2,12.7
			c0,0,22,15.1,23,15.1C248.3,191.8,269.9,197,269.9,197z"/>
		<path class="st2" d="M296.4,207.4c0,0-5-18.9-5.6-19.3s-34.9-13.5-34.9-13.5l20.3,23.6L296.4,207.4z"/>
		<path class="st2" d="M320.5,222.1c0.6-1-3.9-18.9-4.1-19.3s-21.6-13.1-21.6-13.1l6.6,20.1L320.5,222.1z"/>
		<path class="st2" d="M321.3,232.4l2.7,4.1c0.2,0.8-2.3,2.1-2.9,1.5l-8.1-6l-6-6.8l11.8,4.1L321.3,232.4z"/>
		<polygon class="st2" points="342.3,215 335.8,191 314.7,176.4 320.1,199.3 		"/>
		<polygon class="st2" points="315.5,197 311,174.6 291,160.7 296.4,186.6 		"/>
		<polygon class="st2" points="323.2,248.2 315.1,240.1 301.6,234.9 316.6,237.9 325.1,246.3 325,249.7 		"/>
		<polygon class="st2" points="332.1,182.5 329.2,159.2 307.6,145.7 316.6,173.1 		"/>
		<polygon class="st2" points="310.7,168.4 304.1,143.2 284,129.8 289.6,155.3 		"/>
		<path class="st2" d="M290,181.8c-0.2-0.4-3.5-25.7-3.5-25.7l-24.7-16.6l-3.7-1.2l5.4,18.5c0,0,9.1,11,9.5,11.6
			C273.4,169,290,181.8,290,181.8z"/>
		<path class="st2" d="M277.1,177.9c0-1.2-15.8-19.5-15.8-19.5l-15.4-4.1l-21.4,0.8l25.3,13.9L277.1,177.9z"/>
		<path class="st2" d="M257.6,151.5c-0.2-0.4-7.7-14.5-7.7-14.5l-5.2-4.6l-16.4-6l4.4,12.5l4.4,7.5l7.3,4.2L257.6,151.5z"/>
		<polygon class="st2" points="284.6,149.1 282.3,127.9 270.7,119 246.8,109.9 252.4,125.2 265.7,138.3 		"/>
		<path class="st2" d="M304.9,136.2l-10.8-23.4l-7.9-8.9l-14.7-6.8l-8.7-1.5c0,0,7,16.6,8.9,18.7c1.9,2.1,8.1,10,9.8,10.8
			c1.7,0.8,13.5,8.5,14.9,9.1C297.7,134.8,304.9,136.2,304.9,136.2z"/>
		<polygon class="st2" points="330.7,154.3 324.8,132.7 300,115.9 309.3,136.2 312.4,142.6 		"/>
		<path class="st2" d="M345,163c0.4-0.8-2.7-10.4-2.7-10.4l-0.8-8.1l-13.7-10l5,16.4l1.9,5.8L345,163z"/>
		<polygon class="st2" points="349.7,144.3 345,130.8 335.4,117.5 336.3,135 		"/>
		<path class="st2" d="M333.4,132.9c0-0.8-1.9-17-1.9-17s-17.6-14.3-18.1-14.3c-0.6-0.2,4.1,20.3,4.1,20.3l15.3,11H333.4
			L333.4,132.9z"/>
		<polygon class="st2" points="369.6,174.2 356.2,155.9 345.4,144.9 353.3,169.4 361.2,177.7 		"/>
		<path class="st2" d="M348.5,127.1c0.4-1,3.3-13.7,3.3-13.7l-17.4-18c0,0,2.9,15.6,3.3,15.8C338.1,111.5,348.5,127.1,348.5,127.1z"
			/>
		<path class="st2" d="M368.2,166.1c0,0,0.6-36.1,0.6-36.7c0-0.4-13.1-13.5-13.1-13.5l-2.5,21l1.4,9.8L368.2,166.1z"/>
		<path class="st2" d="M369.6,122.9c0,0,2.3-13.7,1.9-13.9c-0.4-0.2-12.5-11.8-12.5-11.8s-3.3,15.3-2.7,15.8
			C356.6,113.6,369.6,122.9,369.6,122.9z"/>
		<path class="st2" d="M313.9,119.6c0,0-5.2-20.9-5.2-21.2c0-0.4-7.1-11-7.1-11l-15.4-9.5l1.9,15.4c0,0,4.2,11.4,4.6,11.8
			c0.4,0.4,14.3,12.2,14.3,12.2L313.9,119.6z"/>
		<path class="st2" d="M333.1,111.3l-3.9-23.2L322.4,76l-12.4-11.8l-0.6,19.9c0,0,2.9,11.4,3.3,11.6
			C313.2,95.8,333.1,111.3,333.1,111.3z"/>
		<path class="st2" d="M352.9,109c0,0,1.9-18.9,1.9-19.3c0-0.4-6.8-13.1-6.8-13.1l-5.8-11c0,0-9.5-9.8-9.5-9.5
			c0,0.4-1.5,19.7-1.5,20.7c0,1,5,14.5,5.6,15.4C337.9,93.3,352.9,109,352.9,109z"/>
		<path class="st2" d="M371.5,103.2c-0.2-0.4-2.7-26.1-2.7-26.5c0-0.4-6-14.5-6-14.5l-4.4-9.5l-6.6,15.1l-0.6,10.8
			c0,0,2.9,8.1,3.7,8.9c0.8,1,16.4,17.6,16.4,17.6L371.5,103.2L371.5,103.2z"/>
		<polygon class="st2" points="376.9,77.9 383.3,67.3 381.5,55.9 377.7,46.8 368.8,59.9 368.8,72.1 		"/>
		<path class="st2" d="M377.7,119.6c0.2,0.2,13.7-18.3,13.7-18.7c0-0.4-5.6-19.9-5.6-20.3c0-0.4-1.9-11.4-1.9-11.4l-6,11
			c0,0-3.3,11.8-3.3,12.2C374.4,92.8,377.7,119.6,377.7,119.6z"/>
		<path class="st2" d="M391.4,95.7l-5.6-20.1l2.7-11l10.6-12c0,0,3.9,14.7,3.9,15.3s-1.2,10.2-1.2,10.2L391.4,95.7z"/>
		<path class="st2" d="M424,75.4c0-0.8-2.3-21.4-2.3-21.4l-11.4,13.3l-4.6,9.8l6.8,18.5l6.6-7.7L424,75.4z"/>
		<path class="st2" d="M397.4,122.9c0-0.8,13.9-21.4,13.9-21.4l-5.8-21l-10.2,18.3L397.4,122.9z"/>
		<polygon class="st2" points="417.4,104 419,89.7 425.9,76 441.6,63 440,82.5 436.9,91.2 424.8,100.3 417.4,104.5 		"/>
		<path class="st2" d="M416.9,120.9c0.2-0.4,12.7-23,12.7-23l-12.7,8.3V120.9z"/>
		<path class="st2" d="M383.8,151.1c0,0,8.3-11.4,8.3-12c0-0.6-0.8-31.9-0.8-31.9l-9.8,13.9l1.4,31.5L383.8,151.1z"/>
		<path class="st2" d="M392.3,156.3c0.2-0.6,0-11.4,0-11.4l-7.9,11.4v10.4L392.3,156.3z"/>
		<polygon class="st2" points="398.7,150.3 407.8,142 414,129.8 412.6,105.5 397.9,127.9 		"/>
		<polygon class="st2" points="412.4,138.3 419,124.6 426.9,114.8 439.2,110.1 429.6,132.3 		"/>
		<path class="st2" d="M406.8,169.6c0.2-0.4,4.1-12.2,4.4-13.1c0.6-1,2.1-12.2,2.1-12.2L435,135l-11,22.2l-1.4,4.8L406.8,169.6z"/>
		<polygon class="st2" points="438.7,132.9 460.1,124.2 452.8,144.3 431.9,152.4 		"/>
		<path class="st2" d="M433.8,108.4c0-0.8,4.4-18.5,5.4-19.1c0.8-0.6,9.8-8.9,9.8-8.9l18.5-6.6l-9.5,21.6l-7.5,6.2L433.8,108.4z"/>
		<polygon class="st2" points="435.6,127.9 444.8,108.4 456.2,100.3 469.8,93.7 458.6,119.6 435.6,129.8 		"/>
		<path class="st2" d="M465.3,118.6c0.8-1.7,7-16.8,7-16.8l13.1-7.9l6.6-1.2l-6.4,17l-6.2,4.1L465.3,118.6z"/>
		<path class="st2" d="M475.5,135c0.6,0,9.8-19.1,9.8-19.1l21.6-8.7l-8.7,19.1l-5.6,4.6L475.5,135z"/>
		<path class="st2" d="M469.8,137.7c0.8-0.8,11.8-19.1,11.8-19.1s1.2-2.3,0-1.9s-18,7.5-18,7.5l-6.8,22L469.8,137.7z"/>
		<path class="st2" d="M428.6,160.7c1,0.4,12.9-4.8,12.9-4.8l8.7-3.5c0,0,1.5-3.1,1-3.1s-12,3.9-12,3.9l-7.3,4.2L428.6,160.7z"/>
		<polygon class="st2" points="443.7,174.8 452.8,154.9 469.8,145.1 497,131.4 484.8,151.3 474.4,164 456.8,172.3 		"/>
		<path class="st2" d="M493.7,143.2c0.2-0.6,10.6-13.3,10.6-13.3l22.2-1L514.7,142L493.7,143.2z"/>
		<polygon class="st2" points="480.4,162.7 491.2,146.8 519.8,143.7 511.3,151.1 501,157.8 		"/>
		<path class="st2" d="M420.9,184.3c0,0,16-7.1,16.4-7.9s10.6-19.1,10.6-19.1l-22,8.3L420.9,184.3z"/>
		<path class="st2" d="M383.6,183.7c-0.2-1,0-15.1,0-15.1l23.4-26.3l-7,22.2l-7.3,13.7L383.6,183.7z"/>
		<path class="st2" d="M398.1,203.6c0,0-0.8-3.1-0.8-3.7s4.6-17.8,4.6-17.8l19.1-8.5l-6.2,18.5L398.1,203.6z"/>
		<polygon class="st2" points="418.4,202.4 427.7,186.6 458.2,174.8 443.7,195.7 		"/>
		<path class="st2" d="M423.2,228.1c0-0.6,14.7-27.4,14.7-27.4l27.8-9.7l-15.3,20.1l-8.7,7.7L423.2,228.1z"/>
		<polygon class="st2" points="448.5,194.7 472.5,187.4 490.6,164.8 465.5,170.8 		"/>
		<path class="st2" d="M476.1,188.1c0.4-0.6,12-14.9,12-14.9l24.7-1.4l-17.6,15.3L476.1,188.1z"/>
		<path class="st2" d="M489.8,169.6c2.7,0,27-1.4,27-1.4l12.2-6.8l9.1-12.9l-22.6,2.3l-16.6,8.1L489.8,169.6z"/>
		<path class="st2" d="M497,188.5l19.1-18l5.6-1.9l8.9-0.8l19.5,3.9l-16,12.7l-14.5,5.8c0,0-13.7,2.7-15.1,2.1
			c-1.4-0.8-7.7-3.1-7.7-3.1L497,188.5L497,188.5z"/>
		<path class="st2" d="M454.1,217.1c0-0.6,15.4-15.4,15.4-15.4l16-4.4l14.5-1.5l11.4-1.7l0.8,0.8l-10.4,10.8l-12.9,9.8L454.1,217.1z
			"/>
		<path class="st2" d="M471.1,198.2c0,0,5-8.1,5.8-8.1s16.8-0.8,16.8-0.8l6.8,4.4L471.1,198.2z"/>
		<polygon class="st2" points="497,212.5 517.4,194.7 544.9,195.5 528.1,205.5 517.1,211.5 		"/>
		<path class="st2" d="M500.6,230c0.8,0,16.8-17.6,16.8-17.6l12-7H541l15.3,3.7L541,220l-10,4.4l-11.4,3.7L500.6,230z"/>
		<polygon class="st2" points="474,233.1 488.9,219.4 510.1,215.7 498.9,230 474,233.7 		"/>
		<path class="st2" d="M438.9,238.3c0-0.8,11.4-13.7,11.4-13.7l7.5-3.7l27.4-3.3L470.5,231l-4.6,2.5L438.9,238.3z"/>
		<polygon class="st2" points="459.3,250.5 481.7,250.5 494.9,236 470.1,238.3 459.3,249.9 		"/>
		<path class="st2" d="M492.2,250.5l15.1-15.8l17-6.6l15.8-3.3l20.3,5.4c0,0-15.3,10.4-16.6,11c-1.4,0.6-10.2,6-10.2,6L492.2,250.5z
			"/>
		<polygon class="st2" points="487.9,257.1 517.1,267.1 533.3,268.1 559.3,257.1 541,250.5 512,250.5 		"/>
		<polygon class="st2" points="507.8,297.4 488.9,279.5 475,280.8 483.1,288.1 491.4,294.3 		"/>
		<path class="st2" d="M484,293c0,0-10.8-10.2-11.2-10.2s-15.3,1-15.3,1l8.9,5.4l18.9,6.2L484,293z"/>
		<polygon class="st2" points="514,269.8 483.8,259.4 443.5,264.6 475.9,276.2 		"/>
		<polygon class="st2" points="512,277.3 547.4,287.8 528.4,292.4 510.1,290.5 492.2,280 514,273.3 530.4,270.4 552.4,275.2 
			552.4,276.9 537.9,282.7 		"/>
		<polygon class="st2" points="274.4,268.3 250,250.5 227.1,252.4 250.8,268.3 		"/>
		<polygon class="st2" points="406.2,225.2 423.6,216.5 427.5,200.3 409.5,211.7 405.8,224.6 		"/>
		<polygon class="st2" points="430,251.5 441,241.2 457,238.5 448.7,249.1 430,252 		"/>
		<polygon class="st2" points="349.9,194.1 349.1,174.8 331.3,155.9 335.2,174.8 336.5,180.8 		"/>
		<polygon class="st2" points="335,245.1 333.3,232 322.1,221.2 325.5,233.5 326.9,237.4 		"/>
	</g>
</g>
<circle class="st3" cx="379.2" cy="226.6" r="190.2"/>
<g class="st4">
	<path class="st2" d="M111.4,527.5v16.7v18.2H98.9v-40.7v-18.2v-25c0-8.6,4.8-15.6,10.7-15.6h1.9h36.7h1.7c5.9,0,10.7,7,10.7,15.6
		v25v18.2v40.7h-12.4v-18.2v-16.7C148.2,527.5,111.4,527.5,111.4,527.5z M111.4,481.1v22.5v5.8h36.7v-5.8v-22.5H111.4z"/>
	<path class="st2" d="M207.1,521.9v40.7h-12.5v-40.7v-18.2v-40.7h12.5v40.5V521.9z"/>
	<path class="st2" d="M269.3,504.5v16.4h-28.2v-16.4H269.3z"/>
	<path class="st2" d="M311,544.2h34.9v-22.5h-36.7h-1.9c-4.2,0-8-3.8-9.7-9.1c-0.7-1.8-1-4.1-1-6.5v-2.6v-25
		c0-8.6,4.8-15.6,10.7-15.6h1.9h36.7h1.9c5.9,0,10.7,7,10.7,15.6v2.6v9.3h-12.5v-9.3h-1.7h-35v22.5h36.7h1.9c4.2,0,8.1,3.8,9.7,9.1
		c0.7,2,1,4.1,1,6.5v2.6V547c0,8.6-4.8,15.6-10.6,15.6h-0.1h-1.9h-36.7h-1.9c-5.8-0.2-10.6-7.1-10.6-15.6v-2.6v-9.3h12.5v9.3h1.7
		V544.2z"/>
	<path class="st2" d="M430.1,562.6h-45.9h-12.5v-18.2v-22.5v-18.2v-22.5v-18.2h49.1h9.3v18.2h-9.3h-36.7v22.5H424v18.2h-39.9v22.5
		h36.7h9.3L430.1,562.6L430.1,562.6z"/>
	<path class="st2" d="M443.5,521.9v-18.2v-22.5v-18.2h49.2h9.2v18.2h-9.2H456v22.5h39.9v18.2H456v22.5v18.2h-12.5v-18.2V521.9z"/>
	<path class="st2" d="M567,562.6h-45.9h-12.5v-18.2v-22.5v-18.2v-22.5v-18.2h49.1h9.3v18.2h-9.3H521v22.5h40v18.2h-39.9v22.5h36.6
		h9.3V562.6z"/>
	<path class="st2" d="M621.4,562.6l-16.4-35.3h-17.6v35.3h-12.4v-35.3v-18.2v-46.2h12.4H624h1.9c5.9,0,10.7,7,10.7,15.6v30.5v2.6
		c0,8.6-4.8,15.6-10.7,15.6H624h-3.9l3.9,8.6l12.5,26.6H624h-2.6V562.6z M587.3,508.9h9.2h15H624v-27.8h-36.7V508.9z"/>
</g>
</svg>
