

<!-- Uploaded to: SVG Repo, www.svgrepo.com, Transformed by: SVG Repo Mixer Tools -->
<svg version="1.1" id="Icons" xmlns="http://www.w3.org/2000/svg" xmlns:xlink="http://www.w3.org/1999/xlink" viewBox="0 0 32 32" xml:space="preserve" width="800px" height="800px" fill="#000000" style="">

<g id="SVGRepo_bgCarrier" stroke-width="0"></g>

<g id="SVGRepo_tracerCarrier" stroke-linecap="round" stroke-linejoin="round" stroke="#000000" stroke-width="6.4"> <style type="text/css"> .st0{fill:none;stroke:#000000;stroke-width:2;stroke-linecap:round;stroke-linejoin:round;stroke-miterlimit:10;} </style> <path class="st0 flfjZVLY_0" d="M23,15c-1.2,0-2.4,0.4-3.3,1h-7.4c-0.9-0.6-2.1-1-3.3-1c-3.3,0-6,2.7-6,6s2.7,6,6,6c1.2,0,2.4-0.4,3.3-1h7.4 c0.9,0.6,2.1,1,3.3,1c3.3,0,6-2.7,6-6S26.3,15,23,15z"></path> <path class="st0 flfjZVLY_1" d="M9,19L9,23"></path> <path class="st0 flfjZVLY_2" d="M7,21L11,21"></path> <path class="st0 flfjZVLY_3" d="M23,19L23,19"></path> <path class="st0 flfjZVLY_4" d="M21,21L21,21"></path> <path class="st0 flfjZVLY_5" d="M25,21L25,21"></path> <path class="st0 flfjZVLY_6" d="M23,23L23,23"></path> <path class="st0 flfjZVLY_7" d="M16,16v-2c0-2.2-1.8-4-4-4H9c-2.2,0-4-1.8-4-4V3"></path> </g>

<g id="SVGRepo_iconCarrier"> <style type="text/css"> .st0{fill:none;stroke:#000000;stroke-width:2;stroke-linecap:round;stroke-linejoin:round;stroke-miterlimit:10;} </style> <path class="st0 flfjZVLY_8" d="M23,15c-1.2,0-2.4,0.4-3.3,1h-7.4c-0.9-0.6-2.1-1-3.3-1c-3.3,0-6,2.7-6,6s2.7,6,6,6c1.2,0,2.4-0.4,3.3-1h7.4 c0.9,0.6,2.1,1,3.3,1c3.3,0,6-2.7,6-6S26.3,15,23,15z"></path> <path class="st0 flfjZVLY_9" d="M9,19L9,23"></path> <path class="st0 flfjZVLY_10" d="M7,21L11,21"></path> <path class="st0 flfjZVLY_11" d="M23,19L23,19"></path> <path class="st0 flfjZVLY_12" d="M21,21L21,21"></path> <path class="st0 flfjZVLY_13" d="M25,21L25,21"></path> <path class="st0 flfjZVLY_14" d="M23,23L23,23"></path> <path class="st0 flfjZVLY_15" d="M16,16v-2c0-2.2-1.8-4-4-4H9c-2.2,0-4-1.8-4-4V3"></path> </g>

<style data-made-with="vivus-instant">.flfjZVLY_0{stroke-dasharray:67 69;stroke-dashoffset:68;animation:flfjZVLY_draw_0 7200ms linear 0ms infinite,flfjZVLY_fade 7200ms linear 0ms infinite;}.flfjZVLY_1{stroke-dasharray:4 6;stroke-dashoffset:5;animation:flfjZVLY_draw_1 7200ms linear 0ms infinite,flfjZVLY_fade 7200ms linear 0ms infinite;}.flfjZVLY_2{stroke-dasharray:4 6;stroke-dashoffset:5;animation:flfjZVLY_draw_2 7200ms linear 0ms infinite,flfjZVLY_fade 7200ms linear 0ms infinite;}.flfjZVLY_3{stroke-dasharray:0 2;stroke-dashoffset:1;animation:flfjZVLY_draw_3 7200ms linear 0ms infinite,flfjZVLY_fade 7200ms linear 0ms infinite;}.flfjZVLY_4{stroke-dasharray:0 2;stroke-dashoffset:1;animation:flfjZVLY_draw_4 7200ms linear 0ms infinite,flfjZVLY_fade 7200ms linear 0ms infinite;}.flfjZVLY_5{stroke-dasharray:0 2;stroke-dashoffset:1;animation:flfjZVLY_draw_5 7200ms linear 0ms infinite,flfjZVLY_fade 7200ms linear 0ms infinite;}.flfjZVLY_6{stroke-dasharray:0 2;stroke-dashoffset:1;animation:flfjZVLY_draw_6 7200ms linear 0ms infinite,flfjZVLY_fade 7200ms linear 0ms infinite;}.flfjZVLY_7{stroke-dasharray:21 23;stroke-dashoffset:22;animation:flfjZVLY_draw_7 7200ms linear 0ms infinite,flfjZVLY_fade 7200ms linear 0ms infinite;}.flfjZVLY_8{stroke-dasharray:67 69;stroke-dashoffset:68;animation:flfjZVLY_draw_8 7200ms linear 0ms infinite,flfjZVLY_fade 7200ms linear 0ms infinite;}.flfjZVLY_9{stroke-dasharray:4 6;stroke-dashoffset:5;animation:flfjZVLY_draw_9 7200ms linear 0ms infinite,flfjZVLY_fade 7200ms linear 0ms infinite;}.flfjZVLY_10{stroke-dasharray:4 6;stroke-dashoffset:5;animation:flfjZVLY_draw_10 7200ms linear 0ms infinite,flfjZVLY_fade 7200ms linear 0ms infinite;}.flfjZVLY_11{stroke-dasharray:0 2;stroke-dashoffset:1;animation:flfjZVLY_draw_11 7200ms linear 0ms infinite,flfjZVLY_fade 7200ms linear 0ms infinite;}.flfjZVLY_12{stroke-dasharray:0 2;stroke-dashoffset:1;animation:flfjZVLY_draw_12 7200ms linear 0ms infinite,flfjZVLY_fade 7200ms linear 0ms infinite;}.flfjZVLY_13{stroke-dasharray:0 2;stroke-dashoffset:1;animation:flfjZVLY_draw_13 7200ms linear 0ms infinite,flfjZVLY_fade 7200ms linear 0ms infinite;}.flfjZVLY_14{stroke-dasharray:0 2;stroke-dashoffset:1;animation:flfjZVLY_draw_14 7200ms linear 0ms infinite,flfjZVLY_fade 7200ms linear 0ms infinite;}.flfjZVLY_15{stroke-dasharray:21 23;stroke-dashoffset:22;animation:flfjZVLY_draw_15 7200ms linear 0ms infinite,flfjZVLY_fade 7200ms linear 0ms infinite;}@keyframes flfjZVLY_draw{100%{stroke-dashoffset:0;}}@keyframes flfjZVLY_fade{0%{stroke-opacity:1;}94.44444444444444%{stroke-opacity:1;}100%{stroke-opacity:0;}}@keyframes flfjZVLY_draw_0{11.11111111111111%{stroke-dashoffset: 68}38.88888888888889%{ stroke-dashoffset: 0;}100%{ stroke-dashoffset: 0;}}@keyframes flfjZVLY_draw_1{12.037037037037036%{stroke-dashoffset: 5}39.81481481481482%{ stroke-dashoffset: 0;}100%{ stroke-dashoffset: 0;}}@keyframes flfjZVLY_draw_2{12.962962962962962%{stroke-dashoffset: 5}40.74074074074075%{ stroke-dashoffset: 0;}100%{ stroke-dashoffset: 0;}}@keyframes flfjZVLY_draw_3{13.88888888888889%{stroke-dashoffset: 1}41.66666666666667%{ stroke-dashoffset: 0;}100%{ stroke-dashoffset: 0;}}@keyframes flfjZVLY_draw_4{14.814814814814817%{stroke-dashoffset: 1}42.592592592592595%{ stroke-dashoffset: 0;}100%{ stroke-dashoffset: 0;}}@keyframes flfjZVLY_draw_5{15.740740740740744%{stroke-dashoffset: 1}43.518518518518526%{ stroke-dashoffset: 0;}100%{ stroke-dashoffset: 0;}}@keyframes flfjZVLY_draw_6{16.666666666666664%{stroke-dashoffset: 1}44.44444444444444%{ stroke-dashoffset: 0;}100%{ stroke-dashoffset: 0;}}@keyframes flfjZVLY_draw_7{17.59259259259259%{stroke-dashoffset: 22}45.370370370370374%{ stroke-dashoffset: 0;}100%{ stroke-dashoffset: 0;}}@keyframes flfjZVLY_draw_8{18.51851851851852%{stroke-dashoffset: 68}46.2962962962963%{ stroke-dashoffset: 0;}100%{ stroke-dashoffset: 0;}}@keyframes flfjZVLY_draw_9{19.444444444444446%{stroke-dashoffset: 5}47.22222222222222%{ stroke-dashoffset: 0;}100%{ stroke-dashoffset: 0;}}@keyframes flfjZVLY_draw_10{20.370370370370374%{stroke-dashoffset: 5}48.14814814814815%{ stroke-dashoffset: 0;}100%{ stroke-dashoffset: 0;}}@keyframes flfjZVLY_draw_11{21.296296296296298%{stroke-dashoffset: 1}49.074074074074076%{ stroke-dashoffset: 0;}100%{ stroke-dashoffset: 0;}}@keyframes flfjZVLY_draw_12{22.22222222222222%{stroke-dashoffset: 1}50%{ stroke-dashoffset: 0;}100%{ stroke-dashoffset: 0;}}@keyframes flfjZVLY_draw_13{23.14814814814815%{stroke-dashoffset: 1}50.92592592592593%{ stroke-dashoffset: 0;}100%{ stroke-dashoffset: 0;}}@keyframes flfjZVLY_draw_14{24.074074074074076%{stroke-dashoffset: 1}51.85185185185185%{ stroke-dashoffset: 0;}100%{ stroke-dashoffset: 0;}}@keyframes flfjZVLY_draw_15{25%{stroke-dashoffset: 22}52.77777777777778%{ stroke-dashoffset: 0;}100%{ stroke-dashoffset: 0;}}</style></svg>