<?xml version="1.0" encoding="utf-8"?>
<!-- Generator: Adobe Illustrator 28.0.0, SVG Export Plug-In . SVG Version: 6.00 Build 0)  -->
<svg version="1.1" id="Camada_1" xmlns="http://www.w3.org/2000/svg" xmlns:xlink="http://www.w3.org/1999/xlink" x="0px" y="0px"
	 viewBox="0 0 731.7 213" style="enable-background:new 0 0 731.7 213;" xml:space="preserve">
<style type="text/css">
	.st0{fill:#261400;}
	.st1{fill:#315B16;}
	.st2{fill:none;stroke:#261400;stroke-width:4;stroke-miterlimit:10;}
	.st3{enable-background:new    ;}
</style>
<g>
	<g>
		<g>
			<polygon class="st0" points="103.4,50.9 105.1,50.9 107.4,88.7 117.7,76.9 107.8,94 107.8,106.8 116.7,85.1 113.5,97.5 
				128.8,85.4 108.6,109.7 108.4,120.2 116.1,108.1 122.1,95.6 117.7,108.7 130.2,100.1 130.2,101.8 108.4,125.7 108.8,132.9 
				117.7,123 125.8,108.5 126.8,109.3 125.2,112.3 132.8,106.4 140.3,103 124.3,117.3 120.1,123.4 124.8,121.7 136.6,110.8 
				136.6,112.5 128.8,121.5 140.3,119.2 149.9,112.5 149.9,115 144.5,118.8 157.2,119.2 156.2,120.3 128.4,126.1 128.4,127.4 
				146.7,130.3 154,130.8 153.4,132.9 145.5,132.9 127.6,129.7 120.3,129.9 108.6,143.6 110.9,169 113.1,173 121.5,176.4 
				133.6,178.9 141.3,180.4 143.9,179.5 152.4,179.3 162.4,182 170.7,180.8 166.9,182.9 138.8,198.9 104.6,205.2 71.8,199.4 
				38.5,179.8 46.4,181.6 59.3,180.1 67.7,178.1 73.8,179.5 77.8,178.9 88.1,176.8 94.3,173 99.4,142.5 94.3,134.3 90.9,130.8 
				85.3,129.5 78,128.2 58.3,130.5 45.6,131.2 40.5,130.5 40.9,128.9 57.7,128.2 72,126.8 80.6,125.7 88.7,125.3 82.9,122.3 
				72.2,120.2 65.7,118 80.6,118 77.6,112.9 78.8,112 88.1,120.7 84.7,111.2 80.4,102.2 82.6,102.2 90.3,118 92.9,123.8 99.4,131.2 
				100.8,122.8 94.1,112.9 84.9,103.2 79.8,100.1 75.2,96.5 76,93.8 95.1,110.2 93.5,103.8 89.7,99.6 90.9,97.3 95.5,102.2 
				100,114.3 101.8,107.8 98.8,103.8 94.3,96.1 90.3,91.5 87.1,87.3 94.1,91.9 92.7,86.2 91.9,83.5 93.7,85.1 96.3,94 101.2,101.5 
				101.8,93.3 92.3,78.6 92.1,76.7 101.6,87 			"/>
		</g>
	</g>
	<g>
		<polygon class="st1" points="69.4,138.9 83,130.3 69.4,130.3 57.3,140.1 		"/>
		<polygon class="st1" points="43.4,141.3 53.5,139.6 62.3,131.3 53.8,131.3 43.4,139.6 		"/>
		<polygon class="st1" points="30.7,140.4 36.8,134.3 49.4,132.1 41.9,138.8 		"/>
		<polygon class="st1" points="38.5,131.6 29.9,136.6 18.7,135.3 27.2,130.4 38.5,130.4 		"/>
		<polygon class="st1" points="35.8,127.4 24.4,121.6 13.6,121.6 23.6,128.4 		"/>
		<polygon class="st1" points="75.7,125 62.8,126.5 56.7,125 43,119.9 62,118.7 		"/>
		<polygon class="st1" points="55.7,116.8 40.9,104.3 60.6,115.9 68.1,116.8 54.5,103.5 35.8,100.3 44.8,110.7 30.7,109.4 
			40.3,116.8 		"/>
		<polygon class="st1" points="38.2,116.8 25.6,107.5 13.6,108.6 25.9,116.8 		"/>
		<path class="st1" d="M40.7,108.6l-8.6-8.8c0,0-16.1-2.3-16-2c0.1,0.2,10.3,9.1,10.3,9.1L40.7,108.6z"/>
		<polygon class="st1" points="77.9,117.7 72.8,113 58.7,107.6 67,114.9 70.7,117.6 		"/>
		<polygon class="st1" points="75.5,105.8 62.2,97.7 47.8,91.1 54.3,99.8 60,106.3 69.5,107.5 65.9,103.8 		"/>
		<polygon class="st1" points="53.4,101.4 45.7,91.1 16.1,90.3 27.3,96.7 38.2,98.4 40.7,97.2 53.1,101.7 		"/>
		<polygon class="st1" points="38.7,88.6 25.9,80.4 15.3,81.8 26.6,88.6 38.2,88.9 		"/>
		<path class="st1" d="M49.5,90.3c-0.6-1.2-9.5-12.8-9.8-12.9s-5.9-3-5.9-3l-13.7-1.3l5.8,6.6c0,0,11.4,7.8,11.9,7.8
			C38.3,87.6,49.5,90.3,49.5,90.3z"/>
		<path class="st1" d="M63.2,95.7c0,0-2.6-9.8-2.9-10c-0.3-0.2-18.1-7-18.1-7l10.5,12.2L63.2,95.7z"/>
		<path class="st1" d="M75.7,103.3c0.3-0.5-2-9.8-2.1-10c-0.1-0.2-11.2-6.8-11.2-6.8l3.4,10.4L75.7,103.3z"/>
		<path class="st1" d="M76.1,108.6l1.4,2.1c0.1,0.4-1.2,1.1-1.5,0.8l-4.2-3.1l-3.1-3.5l6.1,2.1L76.1,108.6z"/>
		<polygon class="st1" points="87,99.6 83.6,87.2 72.7,79.6 75.5,91.5 		"/>
		<polygon class="st1" points="73.1,90.3 70.8,78.7 60.4,71.5 63.2,84.9 		"/>
		<polygon class="st1" points="77.1,116.8 72.9,112.6 65.9,109.9 73.7,111.5 78.1,115.8 78,117.6 		"/>
		<polygon class="st1" points="81.7,82.8 80.2,70.7 69,63.7 73.7,77.9 		"/>
		<polygon class="st1" points="70.6,75.5 67.2,62.4 56.8,55.5 59.7,68.7 		"/>
		<path class="st1" d="M59.9,82.4c-0.1-0.2-1.8-13.3-1.8-13.3l-12.8-8.6l-1.9-0.6l2.8,9.6c0,0,4.7,5.7,4.9,6
			C51.3,75.8,59.9,82.4,59.9,82.4z"/>
		<path class="st1" d="M53.2,80.4c0-0.6-8.2-10.1-8.2-10.1L37,68.2l-11.1,0.4L39,75.8L53.2,80.4z"/>
		<path class="st1" d="M43.1,66.7c-0.1-0.2-4-7.5-4-7.5l-2.7-2.4l-8.5-3.1l2.3,6.5l2.3,3.9l3.8,2.2L43.1,66.7z"/>
		<polygon class="st1" points="57.1,65.5 55.9,54.5 49.9,49.9 37.5,45.2 40.4,53.1 47.3,59.9 		"/>
		<path class="st1" d="M67.6,58.8L62,46.7l-4.1-4.6l-7.6-3.5l-4.5-0.8c0,0,3.6,8.6,4.6,9.7c1,1.1,4.2,5.2,5.1,5.6
			c0.9,0.4,7,4.4,7.7,4.7C63.9,58.1,67.6,58.8,67.6,58.8z"/>
		<polygon class="st1" points="81,68.2 77.9,57 65.1,48.3 69.9,58.8 71.5,62.1 		"/>
		<path class="st1" d="M88.4,72.7c0.2-0.4-1.4-5.4-1.4-5.4l-0.4-4.2l-7.1-5.2l2.6,8.5l1,3L88.4,72.7z"/>
		<polygon class="st1" points="90.8,63 88.4,56 83.4,49.1 83.9,58.2 		"/>
		<path class="st1" d="M82.4,57.1c0-0.4-1-8.8-1-8.8s-9.1-7.4-9.4-7.4c-0.3-0.1,2.1,10.5,2.1,10.5l7.9,5.7L82.4,57.1L82.4,57.1z"/>
		<polygon class="st1" points="101.1,78.5 94.2,69 88.6,63.3 92.7,76 96.8,80.3 		"/>
		<path class="st1" d="M90.2,54.1c0.2-0.5,1.7-7.1,1.7-7.1l-9-9.3c0,0,1.5,8.1,1.7,8.2C84.8,46,90.2,54.1,90.2,54.1z"/>
		<path class="st1" d="M100.4,74.3c0,0,0.3-18.7,0.3-19c0-0.2-6.8-7-6.8-7l-1.3,10.9l0.7,5.1L100.4,74.3z"/>
		<path class="st1" d="M101.1,51.9c0,0,1.2-7.1,1-7.2c-0.2-0.1-6.5-6.1-6.5-6.1s-1.7,7.9-1.4,8.2C94.4,47.1,101.1,51.9,101.1,51.9z"
			/>
		<path class="st1" d="M72.3,50.2c0,0-2.7-10.8-2.7-11c0-0.2-3.7-5.7-3.7-5.7l-8-4.9l1,8c0,0,2.2,5.9,2.4,6.1
			c0.2,0.2,7.4,6.3,7.4,6.3L72.3,50.2z"/>
		<path class="st1" d="M82.2,45.9l-2-12l-3.5-6.3l-6.4-6.1L70,31.8c0,0,1.5,5.9,1.7,6C71.9,37.9,82.2,45.9,82.2,45.9z"/>
		<path class="st1" d="M92.5,44.7c0,0,1-9.8,1-10c0-0.2-3.5-6.8-3.5-6.8l-3-5.7c0,0-4.9-5.1-4.9-4.9c0,0.2-0.8,10.2-0.8,10.7
			s2.6,7.5,2.9,8C84.7,36.6,92.5,44.7,92.5,44.7z"/>
		<path class="st1" d="M102.1,41.7c-0.1-0.2-1.4-13.5-1.4-13.7c0-0.2-3.1-7.5-3.1-7.5l-2.3-4.9l-3.4,7.8l-0.3,5.6
			c0,0,1.5,4.2,1.9,4.6c0.4,0.5,8.5,9.1,8.5,9.1L102.1,41.7L102.1,41.7z"/>
		<polygon class="st1" points="104.9,28.6 108.2,23.1 107.3,17.2 105.3,12.5 100.7,19.3 100.7,25.6 		"/>
		<path class="st1" d="M105.3,50.2c0.1,0.1,7.1-9.5,7.1-9.7c0-0.2-2.9-10.3-2.9-10.5c0-0.2-1-5.9-1-5.9l-3.1,5.7
			c0,0-1.7,6.1-1.7,6.3C103.6,36.3,105.3,50.2,105.3,50.2z"/>
		<path class="st1" d="M112.4,37.8l-2.9-10.4l1.4-5.7l5.5-6.2c0,0,2,7.6,2,7.9s-0.6,5.3-0.6,5.3L112.4,37.8z"/>
		<path class="st1" d="M129.3,27.3c0-0.4-1.2-11.1-1.2-11.1l-5.9,6.9l-2.4,5.1l3.5,9.6l3.4-4L129.3,27.3z"/>
		<path class="st1" d="M115.5,51.9c0-0.4,7.2-11.1,7.2-11.1l-3-10.9l-5.3,9.5L115.5,51.9z"/>
		<polygon class="st1" points="125.9,42.1 126.7,34.7 130.3,27.6 138.4,20.9 137.6,31 136,35.5 129.7,40.2 125.9,42.4 		"/>
		<path class="st1" d="M125.6,50.9c0.1-0.2,6.6-11.9,6.6-11.9l-6.6,4.3V50.9z"/>
		<path class="st1" d="M108.5,66.5c0,0,4.3-5.9,4.3-6.2s-0.4-16.5-0.4-16.5l-5.1,7.2l0.7,16.3L108.5,66.5z"/>
		<path class="st1" d="M112.9,69.2c0.1-0.3,0-5.9,0-5.9l-4.1,5.9v5.4L112.9,69.2z"/>
		<polygon class="st1" points="116.2,66.1 120.9,61.8 124.1,55.5 123.4,42.9 115.8,54.5 		"/>
		<polygon class="st1" points="123.3,59.9 126.7,52.8 130.8,47.7 137.2,45.3 132.2,56.8 		"/>
		<path class="st1" d="M120.4,76.1c0.1-0.2,2.1-6.3,2.3-6.8c0.3-0.5,1.1-6.3,1.1-6.3l11.2-4.8l-5.7,11.5l-0.7,2.5L120.4,76.1z"/>
		<polygon class="st1" points="136.9,57.1 148,52.6 144.2,63 133.4,67.2 		"/>
		<path class="st1" d="M134.4,44.4c0-0.4,2.3-9.6,2.8-9.9c0.4-0.3,5.1-4.6,5.1-4.6l9.6-3.4l-4.9,11.2l-3.9,3.2L134.4,44.4z"/>
		<polygon class="st1" points="135.3,54.5 140.1,44.4 146,40.2 153,36.8 147.2,50.2 135.3,55.5 		"/>
		<path class="st1" d="M150.7,49.7c0.4-0.9,3.6-8.7,3.6-8.7l6.8-4.1l3.4-0.6l-3.3,8.8l-3.2,2.1L150.7,49.7z"/>
		<path class="st1" d="M156,58.2c0.3,0,5.1-9.9,5.1-9.9l11.2-4.5l-4.5,9.9l-2.9,2.4L156,58.2z"/>
		<path class="st1" d="M153,59.6c0.4-0.4,6.1-9.9,6.1-9.9s0.6-1.2,0-1c-0.6,0.2-9.3,3.9-9.3,3.9L146.3,64L153,59.6z"/>
		<path class="st1" d="M131.7,71.5c0.5,0.2,6.7-2.5,6.7-2.5l4.5-1.8c0,0,0.8-1.6,0.5-1.6c-0.3,0-6.2,2-6.2,2l-3.8,2.2L131.7,71.5z"
			/>
		<polygon class="st1" points="139.5,78.8 144.2,68.5 153,63.4 167.1,56.3 160.8,66.6 155.4,73.2 146.3,77.5 		"/>
		<path class="st1" d="M165.4,62.4c0.1-0.3,5.5-6.9,5.5-6.9l11.5-0.5l-6.1,6.8L165.4,62.4z"/>
		<polygon class="st1" points="158.5,72.5 164.1,64.3 178.9,62.7 174.5,66.5 169.2,70 		"/>
		<path class="st1" d="M127.7,83.7c0,0,8.3-3.7,8.5-4.1c0.2-0.4,5.5-9.9,5.5-9.9l-11.4,4.3L127.7,83.7z"/>
		<path class="st1" d="M108.4,83.4c-0.1-0.5,0-7.8,0-7.8L120.5,62l-3.6,11.5l-3.8,7.1L108.4,83.4z"/>
		<path class="st1" d="M115.9,93.7c0,0-0.4-1.6-0.4-1.9s2.4-9.2,2.4-9.2l9.9-4.4l-3.2,9.6L115.9,93.7z"/>
		<polygon class="st1" points="126.4,93.1 131.2,84.9 147,78.8 139.5,89.6 		"/>
		<path class="st1" d="M128.9,106.4c0-0.3,7.6-14.2,7.6-14.2l14.4-5l-7.9,10.4l-4.5,4L128.9,106.4z"/>
		<polygon class="st1" points="142,89.1 154.4,85.3 163.8,73.6 150.8,76.7 		"/>
		<path class="st1" d="M156.3,85.7c0.2-0.3,6.2-7.7,6.2-7.7l12.8-0.7l-9.1,7.9L156.3,85.7z"/>
		<path class="st1" d="M163.4,76.1c1.4,0,14-0.7,14-0.7l6.3-3.5l4.7-6.7l-11.7,1.2l-8.6,4.2L163.4,76.1z"/>
		<path class="st1" d="M167.1,85.9l9.9-9.3l2.9-1l4.6-0.4l10.1,2l-8.3,6.6l-7.5,3c0,0-7.1,1.4-7.8,1.1c-0.7-0.4-4-1.6-4-1.6
			L167.1,85.9L167.1,85.9z"/>
		<path class="st1" d="M144.9,100.7c0-0.3,8-8,8-8l8.3-2.3l7.5-0.8l5.9-0.9l0.4,0.4l-5.4,5.6l-6.7,5.1L144.9,100.7z"/>
		<path class="st1" d="M153.7,90.9c0,0,2.6-4.2,3-4.2c0.4,0,8.7-0.4,8.7-0.4l3.5,2.3L153.7,90.9z"/>
		<polygon class="st1" points="167.1,98.3 177.7,89.1 191.9,89.5 183.2,94.7 177.5,97.8 		"/>
		<path class="st1" d="M169,107.4c0.4,0,8.7-9.1,8.7-9.1l6.2-3.6h6l7.9,1.9l-7.9,5.6l-5.2,2.3l-5.9,1.9L169,107.4z"/>
		<polygon class="st1" points="155.2,109 162.9,101.9 173.9,100 168.1,107.4 155.2,109.3 		"/>
		<path class="st1" d="M137,111.7c0-0.4,5.9-7.1,5.9-7.1l3.9-1.9l14.2-1.7l-7.6,6.9l-2.4,1.3L137,111.7z"/>
		<polygon class="st1" points="147.6,118 159.2,118 166,110.5 153.2,111.7 147.6,117.7 		"/>
		<path class="st1" d="M164.6,118l7.8-8.2l8.8-3.4l8.2-1.7l10.5,2.8c0,0-7.9,5.4-8.6,5.7s-5.3,3.1-5.3,3.1L164.6,118z"/>
		<polygon class="st1" points="162.4,121.4 177.5,126.6 185.9,127.1 199.4,121.4 189.9,118 174.9,118 		"/>
		<polygon class="st1" points="172.7,142.3 162.9,133 155.7,133.7 159.9,137.5 164.2,140.7 		"/>
		<path class="st1" d="M160.4,140c0,0-5.6-5.3-5.8-5.3s-7.9,0.5-7.9,0.5l4.6,2.8l9.8,3.2L160.4,140z"/>
		<polygon class="st1" points="175.9,128 160.3,122.6 139.4,125.3 156.2,131.3 		"/>
		<polygon class="st1" points="174.9,131.9 193.2,137.3 183.4,139.7 173.9,138.7 164.6,133.3 175.9,129.8 184.4,128.3 195.8,130.8 
			195.8,131.7 188.3,134.7 		"/>
		<polygon class="st1" points="51.8,127.2 39.2,118 27.3,119 39.6,127.2 		"/>
		<polygon class="st1" points="120.1,104.9 129.1,100.4 131.1,92 121.8,97.9 119.9,104.6 		"/>
		<polygon class="st1" points="132.4,118.5 138.1,113.2 146.4,111.8 142.1,117.3 132.4,118.8 		"/>
		<polygon class="st1" points="90.9,88.8 90.5,78.8 81.3,69 83.3,78.8 84,81.9 		"/>
		<polygon class="st1" points="83.2,115.2 82.3,108.4 76.5,102.8 78.3,109.2 79,111.2 		"/>
	</g>
</g>
<circle class="st2" cx="105.6" cy="107.2" r="97.4"/>
<g class="st3">
	<path class="st1" d="M244.3,115.2v10.1v11h-11.5v-24.6v-11V85.6c0-5.2,4.4-9.4,9.8-9.4h1.7H278h1.6c5.4,0,9.8,4.2,9.8,9.4v15.1v11
		v24.6H278v-11v-10.1H244.3z M244.3,87.2v13.6v3.5H278v-3.5V87.2H244.3z"/>
	<path class="st1" d="M332.1,111.8v24.6h-11.5v-24.6v-11V76.2h11.5v24.5V111.8z"/>
	<path class="st1" d="M389.2,101.3v9.9h-25.9v-9.9H389.2z"/>
	<path class="st1" d="M427.5,125.3h32v-13.6h-33.7h-1.7c-3.9,0-7.3-2.3-8.9-5.5c-0.6-1.1-0.9-2.5-0.9-3.9v-1.6V85.6
		c0-5.2,4.4-9.4,9.8-9.4h1.7h33.7h1.7c5.4,0,9.8,4.2,9.8,9.4v1.6v5.6h-11.5v-5.6h-1.6h-32.1v13.6h33.7h1.7c3.9,0,7.4,2.3,8.9,5.5
		c0.6,1.2,0.9,2.5,0.9,3.9v1.6v15.2c0,5.2-4.4,9.4-9.7,9.4h-0.1h-1.7h-33.7h-1.7c-5.3-0.1-9.7-4.3-9.7-9.4v-1.6v-5.6h11.5v5.6H427.5
		z"/>
	<path class="st1" d="M536.8,136.4h-42.1h-11.5v-11v-13.6v-11V87.2v-11h45.1h8.5v11h-8.5h-33.7v13.6h36.6v11h-36.6v13.6h33.7h8.5
		V136.4z"/>
	<path class="st1" d="M549.1,111.8v-11V87.2v-11h45.2h8.4v11h-8.4h-33.7v13.6h36.6v11h-36.6v13.6v11h-11.5v-11V111.8z"/>
	<path class="st1" d="M662.5,136.4h-42.1h-11.5v-11v-13.6v-11V87.2v-11H654h8.5v11H654h-33.7v13.6H657v11h-36.6v13.6H654h8.5V136.4z
		"/>
	<path class="st1" d="M712.4,136.4l-15.1-21.3h-16.2v21.3h-11.4v-21.3v-11V76.2h11.4h33.7h1.7c5.4,0,9.8,4.2,9.8,9.4V104v1.6
		c0,5.2-4.4,9.4-9.8,9.4h-1.7h-3.6l3.6,5.2l11.5,16.1h-11.5H712.4z M681.1,104h8.4h13.8h11.5V87.2h-33.7V104z"/>
</g>
</svg>
